# xmcd CD database file
#
# Track frame offsets:
#	150
#	10287
#	26624
#	39119
#	53008
#	63681
#	80086
#	93994
#	108636
#	121444
#	136748
#	151550
#
# Disc length: 2224 seconds
#
# Revision: 0
# Processed by: cddbd v1.5.2PL0 Copyright (c) Steve Scherf et al.
# Submitted via: CDex 1.51
#
DISCID=9008ae0c
DTITLE=Lost Compadres - Dense
DYEAR=2007
DGENRE=Country
TTITLE0=Sunday Pickin`
TTITLE1=Broken Love
TTITLE2=Find Myself
TTITLE3=So Much Between Us
TTITLE4=Full Moon
TTITLE5=My Family
TTITLE6=Go Out And Get Her
TTITLE7=Frank
TTITLE8=One More Many
TTITLE9=A Hundred Times
TTITLE10=L+N Blues
TTITLE11=Bye Bye
EXTD=YEAR: 2007
EXTT0=
EXTT1=
EXTT2=
EXTT3=
EXTT4=
EXTT5=
EXTT6=
EXTT7=
EXTT8=
EXTT9=
EXTT10=
EXTT11=
PLAYORDER=
